<svg width="116" height="32" viewBox="0 0 116 32" fill="none" xmlns="http://www.w3.org/2000/svg">
<g filter="url(#filter0_d_1_71)">
<g clip-path="url(#clip0_1_71)">
<path d="M4.96 23H13.856V22.552C10.656 22.136 9.696 20.792 9.696 17.56V2.872H9.888L18.208 23.032H19.36L26.816 2.872H26.976V20.728C26.976 22.008 26.176 22.456 23.904 22.552V23H34.944V22.552C32.256 22.456 31.616 21.944 31.616 20.728V2.968C31.616 1.752 32.256 1.208 34.944 1.112V0.695999H26.784L20.736 17.144H20.576L13.984 0.695999H4.96V1.112C7.712 1.176 8.896 2.648 8.896 4.568V17.56C8.896 20.792 7.968 22.168 4.96 22.552V23Z" fill="white"/>
<path d="M56.128 23.352H57.664V6.104C57.664 2.936 58.528 1.56 61.536 1.112V0.695999H52.448V1.112C55.68 1.496 56.864 2.936 56.864 6.104V16.728H56.832L44.512 0.695999H36.96V1.112C39.712 1.24 40.896 2.872 40.896 4.824V17.56C40.896 20.792 39.968 22.168 36.96 22.552V23H45.984V22.552C42.72 22.2 41.696 20.792 41.696 17.56V4.728H41.728L56.128 23.352Z" fill="white"/>
<path d="M67.6 23H79.696V22.552C76.848 22.488 75.984 21.944 75.984 20.728V1.272H76.752C79.216 1.272 81.136 3.736 83.376 8.088L83.856 8.024L83.696 0.695999H63.568L63.376 8.024L63.856 8.088C66.128 3.64 68.08 1.272 70.512 1.272H71.312V20.728C71.312 21.944 70.416 22.488 67.6 22.552V23Z" fill="white"/>
<path d="M106.128 23.352H107.664V6.104C107.664 2.936 108.528 1.56 111.536 1.112V0.695999H102.448V1.112C105.68 1.496 106.864 2.936 106.864 6.104V16.728H106.832L94.512 0.695999H86.96V1.112C89.712 1.24 90.896 2.872 90.896 4.824V17.56C90.896 20.792 89.968 22.168 86.96 22.552V23H95.984V22.552C92.72 22.2 91.696 20.792 91.696 17.56V4.728H91.728L106.128 23.352Z" fill="white"/>
</g>
<rect x="4.5" y="0.5" width="107" height="23" stroke="black" shape-rendering="crispEdges"/>
</g>
<defs>
<filter id="filter0_d_1_71" x="0" y="0" width="116" height="32" filterUnits="userSpaceOnUse" color-interpolation-filters="sRGB">
<feFlood flood-opacity="0" result="BackgroundImageFix"/>
<feColorMatrix in="SourceAlpha" type="matrix" values="0 0 0 0 0 0 0 0 0 0 0 0 0 0 0 0 0 0 127 0" result="hardAlpha"/>
<feOffset dy="4"/>
<feGaussianBlur stdDeviation="2"/>
<feComposite in2="hardAlpha" operator="out"/>
<feColorMatrix type="matrix" values="0 0 0 0 0 0 0 0 0 0 0 0 0 0 0 0 0 0 0.25 0"/>
<feBlend mode="normal" in2="BackgroundImageFix" result="effect1_dropShadow_1_71"/>
<feBlend mode="normal" in="SourceGraphic" in2="effect1_dropShadow_1_71" result="shape"/>
</filter>
<clipPath id="clip0_1_71">
<rect x="4" width="108" height="24" fill="white"/>
</clipPath>
</defs>
</svg>
